LibreBaskerville-Bold.ufo
<glyph name="ampersand" format="1">
  <advance width="891"/>
  <unicode hex="0026"/>
  <outline>
    <contour>
      <point x="356" y="473" type="curve"/>
      <point x="319" y="516"/>
      <point x="298" y="566"/>
      <point x="298" y="618" type="curve" smooth="yes"/>
      <point x="298" y="677"/>
      <point x="320" y="709"/>
      <point x="362" y="709" type="curve" smooth="yes"/>
      <point x="408" y="709"/>
      <point x="438" y="673"/>
      <point x="438" y="617" type="curve" smooth="yes"/>
      <point x="438" y="563"/>
      <point x="413" y="517"/>
    </contour>
    <contour>
      <point x="460" y="133" type="line"/>
      <point x="406" y="89"/>
      <point x="342" y="63"/>
      <point x="290" y="63" type="curve" smooth="yes"/>
      <point x="225" y="63"/>
      <point x="177" y="112"/>
      <point x="177" y="179" type="curve" smooth="yes"/>
      <point x="177" y="244"/>
      <point x="215" y="309"/>
      <point x="282" y="354" type="curve"/>
    </contour>
    <contour>
      <point x="391" y="425" type="line"/>
      <point x="503" y="499"/>
      <point x="551" y="559"/>
      <point x="551" y="631" type="curve" smooth="yes"/>
      <point x="551" y="718"/>
      <point x="478" y="780"/>
      <point x="377" y="780" type="curve" smooth="yes"/>
      <point x="263" y="780"/>
      <point x="184" y="699"/>
      <point x="184" y="582" type="curve" smooth="yes"/>
      <point x="184" y="523"/>
      <point x="204" y="470"/>
      <point x="248" y="408" type="curve"/>
      <point x="89" y="330"/>
      <point x="20" y="257"/>
      <point x="20" y="167" type="curve" smooth="yes"/>
      <point x="20" y="65"/>
      <point x="113" y="-10"/>
      <point x="241" y="-10" type="curve" smooth="yes"/>
      <point x="336" y="-10"/>
      <point x="435" y="34"/>
      <point x="503" y="97" type="curve"/>
      <point x="590" y="22"/>
      <point x="643" y="-10"/>
      <point x="712" y="-10" type="curve" smooth="yes"/>
      <point x="797" y="-10"/>
      <point x="852" y="31"/>
      <point x="867" y="105" type="curve"/>
      <point x="841" y="112" type="line"/>
      <point x="818" y="75"/>
      <point x="801" y="65"/>
      <point x="764" y="65" type="curve" smooth="yes"/>
      <point x="706" y="65"/>
      <point x="639" y="108"/>
      <point x="585" y="177" type="curve"/>
      <point x="724" y="370" type="line" smooth="yes"/>
      <point x="754" y="412"/>
      <point x="779" y="432"/>
      <point x="840" y="432" type="curve"/>
      <point x="840" y="472" type="line"/>
      <point x="598" y="472" type="line"/>
      <point x="598" y="432" type="line"/>
      <point x="644" y="432"/>
      <point x="662" y="423"/>
      <point x="662" y="402" type="curve" smooth="yes"/>
      <point x="662" y="370"/>
      <point x="616" y="297"/>
      <point x="551" y="224" type="curve"/>
    </contour>
  </outline>
</glyph>
<glyph name="period" format="1">
  <advance width="260"/>
  <unicode hex="002E"/>
  <outline>
    <contour>
      <point x="54" y="64" type="curve" smooth="yes"/>
      <point x="54" y="23"/>
      <point x="87" y="-10"/>
      <point x="129" y="-10" type="curve" smooth="yes"/>
      <point x="173" y="-10"/>
      <point x="206" y="23"/>
      <point x="206" y="64" type="curve" smooth="yes"/>
      <point x="206" y="107"/>
      <point x="173" y="141"/>
      <point x="129" y="141" type="curve" smooth="yes"/>
      <point x="87" y="141"/>
      <point x="54" y="107"/>
    </contour>
  </outline>
</glyph>
<glyph name="two" format="1">
  <advance width="651"/>
  <unicode hex="0032"/>
  <outline>
    <contour>
      <point x="227" y="123" type="line"/>
      <point x="437" y="264"/>
      <point x="591" y="403"/>
      <point x="591" y="564" type="curve" smooth="yes"/>
      <point x="591" y="691"/>
      <point x="481" y="780"/>
      <point x="324" y="780" type="curve" smooth="yes"/>
      <point x="166" y="780"/>
      <point x="49" y="692"/>
      <point x="49" y="573" type="curve" smooth="yes"/>
      <point x="49" y="486"/>
      <point x="111" y="423"/>
      <point x="194" y="423" type="curve" smooth="yes"/>
      <point x="237" y="423"/>
      <point x="270" y="448"/>
      <point x="276" y="486" type="curve"/>
      <point x="218" y="486"/>
      <point x="181" y="528"/>
      <point x="181" y="594" type="curve" smooth="yes"/>
      <point x="181" y="670"/>
      <point x="234" y="723"/>
      <point x="307" y="723" type="curve" smooth="yes"/>
      <point x="383" y="723"/>
      <point x="430" y="663"/>
      <point x="430" y="566" type="curve" smooth="yes"/>
      <point x="430" y="426"/>
      <point x="356" y="318"/>
      <point x="39" y="46" type="curve"/>
      <point x="39" y="0" type="line"/>
      <point x="563" y="0" type="line"/>
      <point x="603" y="233" type="line"/>
      <point x="559" y="233" type="line"/>
      <point x="529" y="139"/>
      <point x="499" y="118"/>
      <point x="432" y="118" type="curve" smooth="yes"/>
      <point x="228" y="118" type="line"/>
    </contour>
  </outline>
</glyph>
<glyph name="four" format="1">
  <advance width="664"/>
  <unicode hex="0034"/>
  <outline>
    <contour>
      <point x="8" y="268" type="line"/>
      <point x="373" y="780" type="line"/>
      <point x="468" y="780" type="line"/>
      <point x="468" y="271" type="line"/>
      <point x="565" y="274"/>
      <point x="586" y="290"/>
      <point x="586" y="367" type="curve"/>
      <point x="623" y="367" type="line"/>
      <point x="623" y="124" type="line"/>
      <point x="586" y="124" type="line"/>
      <point x="586" y="197"/>
      <point x="565" y="210"/>
      <point x="468" y="212" type="curve"/>
      <point x="468" y="181" type="line" smooth="yes"/>
      <point x="468" y="88"/>
      <point x="483" y="43"/>
      <point x="561" y="40" type="curve"/>
      <point x="561" y="0" type="line"/>
      <point x="218" y="0" type="line"/>
      <point x="218" y="40" type="line"/>
      <point x="312" y="44"/>
      <point x="327" y="90"/>
      <point x="327" y="174" type="curve" smooth="yes"/>
      <point x="327" y="208" type="line"/>
      <point x="8" y="208" type="line"/>
    </contour>
    <contour>
      <point x="327" y="595" type="line"/>
      <point x="323" y="595" type="line"/>
      <point x="93" y="271" type="line"/>
      <point x="327" y="271" type="line"/>
    </contour>
  </outline>
</glyph>
<glyph name="B" format="1">
  <advance width="797"/>
  <unicode hex="0042"/>
  <outline>
    <contour>
      <point x="33" y="0" type="line"/>
      <point x="33" y="40" type="line"/>
      <point x="123" y="43"/>
      <point x="139" y="60"/>
      <point x="139" y="154" type="curve" smooth="yes"/>
      <point x="139" y="616" type="line" smooth="yes"/>
      <point x="139" y="709"/>
      <point x="126" y="726"/>
      <point x="54" y="730" type="curve"/>
      <point x="54" y="770" type="line"/>
      <point x="375" y="770" type="line" smooth="yes"/>
      <point x="575" y="770"/>
      <point x="689" y="702"/>
      <point x="689" y="583" type="curve" smooth="yes"/>
      <point x="689" y="503"/>
      <point x="633" y="448"/>
      <point x="518" y="415" type="curve"/>
      <point x="518" y="411" type="line"/>
      <point x="665" y="411"/>
      <point x="758" y="323"/>
      <point x="758" y="203" type="curve" smooth="yes"/>
      <point x="758" y="135"/>
      <point x="724" y="84"/>
      <point x="663" y="50" type="curve" smooth="yes"/>
      <point x="604" y="17"/>
      <point x="521" y="0"/>
      <point x="418" y="0" type="curve" smooth="yes"/>
    </contour>
    <contour>
      <point x="425" y="61" type="curve" smooth="yes"/>
      <point x="533" y="61"/>
      <point x="586" y="108"/>
      <point x="586" y="206" type="curve" smooth="yes"/>
      <point x="586" y="265"/>
      <point x="568" y="308"/>
      <point x="528" y="336" type="curve" smooth="yes"/>
      <point x="488" y="364"/>
      <point x="425" y="375"/>
      <point x="334" y="375" type="curve" smooth="yes"/>
      <point x="286" y="375" type="line"/>
      <point x="286" y="175" type="line" smooth="yes"/>
      <point x="286" y="93"/>
      <point x="325" y="61"/>
    </contour>
    <contour>
      <point x="345" y="435" type="line" smooth="yes"/>
      <point x="405" y="435"/>
      <point x="449" y="447"/>
      <point x="479" y="468" type="curve" smooth="yes"/>
      <point x="512" y="491"/>
      <point x="527" y="526"/>
      <point x="527" y="571" type="curve" smooth="yes"/>
      <point x="527" y="668"/>
      <point x="481" y="709"/>
      <point x="375" y="709" type="curve" smooth="yes"/>
      <point x="304" y="709" type="line" smooth="yes"/>
      <point x="293" y="709"/>
      <point x="286" y="702"/>
      <point x="286" y="692" type="curve" smooth="yes"/>
      <point x="286" y="435" type="line"/>
    </contour>
  </outline>
</glyph>
<glyph name="I" format="1">
  <advance width="429"/>
  <unicode hex="0049"/>
  <outline>
    <contour>
      <point x="215" y="830" type="move" name="topcap"/>
    </contour>
    <contour>
      <point x="215" y="0" type="move" name="bottom"/>
    </contour>
    <contour>
      <point x="393" y="40" type="line"/>
      <point x="303" y="43"/>
      <point x="288" y="60"/>
      <point x="288" y="184" type="curve" smooth="yes"/>
      <point x="288" y="586" type="line" smooth="yes"/>
      <point x="288" y="699"/>
      <point x="301" y="726"/>
      <point x="383" y="730" type="curve"/>
      <point x="383" y="770" type="line"/>
      <point x="46" y="770" type="line"/>
      <point x="46" y="730" type="line"/>
      <point x="128" y="726"/>
      <point x="141" y="699"/>
      <point x="141" y="586" type="curve" smooth="yes"/>
      <point x="141" y="184" type="line" smooth="yes"/>
      <point x="141" y="60"/>
      <point x="126" y="43"/>
      <point x="36" y="40" type="curve"/>
      <point x="36" y="0" type="line"/>
      <point x="393" y="0" type="line"/>
    </contour>
  </outline>
</glyph>
<glyph name="J" format="1">
  <advance width="407"/>
  <unicode hex="004A"/>
  <outline>
    <contour>
      <point x="203" y="830" type="move" name="topcap"/>
    </contour>
    <contour>
      <point x="130" y="616" type="line" smooth="yes"/>
      <point x="130" y="709"/>
      <point x="117" y="726"/>
      <point x="35" y="730" type="curve"/>
      <point x="35" y="770" type="line"/>
      <point x="372" y="770" type="line"/>
      <point x="372" y="730" type="line"/>
      <point x="289" y="727"/>
      <point x="277" y="710"/>
      <point x="277" y="609" type="curve" smooth="yes"/>
      <point x="277" y="-2" type="line" smooth="yes"/>
      <point x="277" y="-169"/>
      <point x="190" y="-260"/>
      <point x="22" y="-260" type="curve" smooth="yes"/>
      <point x="-98" y="-260"/>
      <point x="-168" y="-214"/>
      <point x="-168" y="-150" type="curve" smooth="yes"/>
      <point x="-168" y="-112"/>
      <point x="-140" y="-90"/>
      <point x="-104" y="-90" type="curve" smooth="yes"/>
      <point x="-74" y="-90"/>
      <point x="-60" y="-103"/>
      <point x="-34" y="-147" type="curve" smooth="yes"/>
      <point x="-8" y="-191"/>
      <point x="10" y="-202"/>
      <point x="41" y="-202" type="curve" smooth="yes"/>
      <point x="98" y="-202"/>
      <point x="130" y="-136"/>
      <point x="130" y="-23" type="curve" smooth="yes"/>
    </contour>
  </outline>
</glyph>
<glyph name="N" format="1">
  <advance width="940"/>
  <unicode hex="004E"/>
  <outline>
    <contour>
      <point x="498" y="830" type="move" name="topcap"/>
    </contour>
    <contour>
      <point x="492" y="0" type="move" name="bottom"/>
    </contour>
    <contour>
      <point x="670" y="-10" type="line"/>
      <point x="227" y="621" type="line"/>
      <point x="223" y="621" type="line"/>
      <point x="223" y="191" type="line" smooth="yes"/>
      <point x="223" y="59"/>
      <point x="238" y="43"/>
      <point x="327" y="40" type="curve"/>
      <point x="327" y="0" type="line"/>
      <point x="30" y="0" type="line"/>
      <point x="30" y="40" type="line"/>
      <point x="128" y="43"/>
      <point x="145" y="60"/>
      <point x="145" y="184" type="curve" smooth="yes"/>
      <point x="145" y="586" type="line" smooth="yes"/>
      <point x="145" y="699"/>
      <point x="130" y="726"/>
      <point x="40" y="730" type="curve"/>
      <point x="40" y="770" type="line"/>
      <point x="319" y="770" type="line"/>
      <point x="722" y="192" type="line"/>
      <point x="726" y="192" type="line"/>
      <point x="726" y="579" type="line" smooth="yes"/>
      <point x="726" y="711"/>
      <point x="711" y="727"/>
      <point x="622" y="730" type="curve"/>
      <point x="622" y="770" type="line"/>
      <point x="919" y="770" type="line"/>
      <point x="919" y="730" type="line"/>
      <point x="821" y="727"/>
      <point x="804" y="710"/>
      <point x="804" y="586" type="curve" smooth="yes"/>
      <point x="804" y="-10" type="line"/>
    </contour>
  </outline>
</glyph>
<glyph name="S" format="1">
  <advance width="663"/>
  <unicode hex="0053"/>
  <outline>
    <contour>
      <point x="320" y="830" type="move" name="topcap"/>
    </contour>
    <contour>
      <point x="322" y="0" type="move" name="bottom"/>
    </contour>
    <contour>
      <point x="69" y="0" type="line"/>
      <point x="93" y="0" type="line"/>
      <point x="113" y="60" type="line"/>
      <point x="180" y="11"/>
      <point x="241" y="-10"/>
      <point x="320" y="-10" type="curve" smooth="yes"/>
      <point x="495" y="-10"/>
      <point x="618" y="84"/>
      <point x="618" y="219" type="curve" smooth="yes"/>
      <point x="618" y="330"/>
      <point x="542" y="405"/>
      <point x="356" y="476" type="curve" smooth="yes"/>
      <point x="218" y="528"/>
      <point x="186" y="553"/>
      <point x="186" y="610" type="curve" smooth="yes"/>
      <point x="186" y="674"/>
      <point x="243" y="719"/>
      <point x="325" y="719" type="curve" smooth="yes"/>
      <point x="414" y="719"/>
      <point x="486" y="659"/>
      <point x="518" y="550" type="curve"/>
      <point x="557" y="550" type="line"/>
      <point x="546" y="766" type="line"/>
      <point x="522" y="766" type="line"/>
      <point x="504" y="716" type="line"/>
      <point x="446" y="759"/>
      <point x="387" y="780"/>
      <point x="319" y="780" type="curve" smooth="yes"/>
      <point x="173" y="780"/>
      <point x="72" y="693"/>
      <point x="72" y="568" type="curve" smooth="yes"/>
      <point x="72" y="461"/>
      <point x="146" y="382"/>
      <point x="301" y="323" type="curve" smooth="yes"/>
      <point x="456" y="265"/>
      <point x="489" y="238"/>
      <point x="489" y="175" type="curve" smooth="yes"/>
      <point x="489" y="101"/>
      <point x="422" y="51"/>
      <point x="322" y="51" type="curve" smooth="yes"/>
      <point x="202" y="51"/>
      <point x="111" y="129"/>
      <point x="93" y="255" type="curve"/>
      <point x="54" y="255" type="line"/>
    </contour>
  </outline>
</glyph>
<glyph name="T" format="1">
  <advance width="827"/>
  <unicode hex="0054"/>
  <outline>
    <contour>
      <point x="413" y="830" type="move" name="topcap"/>
    </contour>
    <contour>
      <point x="413" y="0" type="move" name="bottom"/>
    </contour>
    <contour>
      <point x="805" y="770" type="line"/>
      <point x="22" y="770" type="line"/>
      <point x="12" y="550" type="line"/>
      <point x="51" y="550" type="line"/>
      <point x="55" y="712"/>
      <point x="138" y="718"/>
      <point x="235" y="718" type="curve" smooth="yes"/>
      <point x="324" y="718"/>
      <point x="338" y="711"/>
      <point x="338" y="687" type="curve" smooth="yes"/>
      <point x="338" y="163" type="line" smooth="yes"/>
      <point x="338" y="77"/>
      <point x="320" y="44"/>
      <point x="201" y="40" type="curve"/>
      <point x="201" y="0" type="line"/>
      <point x="620" y="0" type="line"/>
      <point x="620" y="40" type="line"/>
      <point x="502" y="44"/>
      <point x="485" y="77"/>
      <point x="485" y="163" type="curve" smooth="yes"/>
      <point x="485" y="687" type="line" smooth="yes"/>
      <point x="485" y="711"/>
      <point x="500" y="718"/>
      <point x="604" y="718" type="curve" smooth="yes"/>
      <point x="711" y="718"/>
      <point x="764" y="682"/>
      <point x="772" y="550" type="curve"/>
      <point x="815" y="550" type="line"/>
    </contour>
  </outline>
</glyph>
<glyph name="W" format="1">
  <advance width="1227"/>
  <unicode hex="0057"/>
  <outline>
    <contour>
      <point x="628" y="830" type="move" name="topcap"/>
    </contour>
    <contour>
      <point x="761" y="597" type="line" smooth="yes"/>
      <point x="750" y="632"/>
      <point x="744" y="658"/>
      <point x="744" y="678" type="curve" smooth="yes"/>
      <point x="744" y="718"/>
      <point x="771" y="729"/>
      <point x="826" y="729" type="curve"/>
      <point x="826" y="770" type="line"/>
      <point x="473" y="770" type="line"/>
      <point x="473" y="729" type="line"/>
      <point x="536" y="722"/>
      <point x="562" y="709"/>
      <point x="588" y="636" type="curve"/>
      <point x="426" y="194" type="line"/>
      <point x="286" y="597" type="line" smooth="yes"/>
      <point x="266" y="653"/>
      <point x="261" y="667"/>
      <point x="261" y="688" type="curve" smooth="yes"/>
      <point x="261" y="717"/>
      <point x="283" y="729"/>
      <point x="350" y="729" type="curve"/>
      <point x="350" y="770" type="line"/>
      <point x="-28" y="770" type="line"/>
      <point x="-28" y="729" type="line"/>
      <point x="49" y="729"/>
      <point x="80" y="711"/>
      <point x="130" y="574" type="curve" smooth="yes"/>
      <point x="342" y="-10" type="line"/>
      <point x="425" y="-10" type="line"/>
      <point x="623" y="518" type="line"/>
      <point x="797" y="-10" type="line"/>
      <point x="886" y="-10" type="line"/>
      <point x="1127" y="649" type="line" smooth="yes"/>
      <point x="1148" y="707"/>
      <point x="1192" y="730"/>
      <point x="1242" y="730" type="curve"/>
      <point x="1242" y="770" type="line"/>
      <point x="958" y="770" type="line"/>
      <point x="958" y="730" type="line"/>
      <point x="1018" y="730"/>
      <point x="1046" y="721"/>
      <point x="1046" y="680" type="curve" smooth="yes"/>
      <point x="1046" y="657"/>
      <point x="1038" y="625"/>
      <point x="1022" y="580" type="curve" smooth="yes"/>
      <point x="887" y="194" type="line"/>
    </contour>
  </outline>
</glyph>
<glyph name="Y" format="1">
  <advance width="760"/>
  <unicode hex="0059"/>
  <outline>
    <contour>
      <point x="391" y="830" type="move" name="topcap"/>
    </contour>
    <contour>
      <point x="101" y="644" type="line" smooth="yes"/>
      <point x="61" y="714"/>
      <point x="38" y="730"/>
      <point x="-14" y="730" type="curve"/>
      <point x="-14" y="770" type="line"/>
      <point x="322" y="770" type="line"/>
      <point x="322" y="730" type="line"/>
      <point x="266" y="730"/>
      <point x="246" y="719"/>
      <point x="246" y="698" type="curve" smooth="yes"/>
      <point x="246" y="685"/>
      <point x="254" y="668"/>
      <point x="271" y="636" type="curve" smooth="yes"/>
      <point x="414" y="363" type="line"/>
      <point x="418" y="363" type="line"/>
      <point x="544" y="573" type="line" smooth="yes"/>
      <point x="588" y="647"/>
      <point x="603" y="679"/>
      <point x="603" y="700" type="curve" smooth="yes"/>
      <point x="603" y="723"/>
      <point x="586" y="730"/>
      <point x="530" y="730" type="curve"/>
      <point x="530" y="770" type="line"/>
      <point x="781" y="770" type="line"/>
      <point x="781" y="730" type="line"/>
      <point x="723" y="730"/>
      <point x="693" y="700"/>
      <point x="601" y="543" type="curve" smooth="yes"/>
      <point x="455" y="293" type="line"/>
      <point x="455" y="191" type="line" smooth="yes"/>
      <point x="455" y="58"/>
      <point x="474" y="40"/>
      <point x="559" y="40" type="curve"/>
      <point x="559" y="0" type="line"/>
      <point x="203" y="0" type="line"/>
      <point x="203" y="40" type="line"/>
      <point x="286" y="40"/>
      <point x="308" y="58"/>
      <point x="308" y="184" type="curve" smooth="yes"/>
      <point x="308" y="276" type="line"/>
    </contour>
  </outline>
</glyph>
<glyph name="Z" format="1">
  <advance width="797"/>
  <unicode hex="005A"/>
  <outline>
    <contour>
      <point x="452" y="830" type="move" name="topcap"/>
    </contour>
    <contour>
      <point x="448" y="0" type="move" name="bottom"/>
    </contour>
    <contour>
      <point x="760" y="255" type="line"/>
      <point x="714" y="255" type="line"/>
      <point x="689" y="99"/>
      <point x="659" y="56"/>
      <point x="515" y="56" type="curve" smooth="yes"/>
      <point x="229" y="56" type="line"/>
      <point x="727" y="747" type="line"/>
      <point x="727" y="770" type="line"/>
      <point x="79" y="770" type="line"/>
      <point x="63" y="566" type="line"/>
      <point x="102" y="566" type="line"/>
      <point x="121" y="670"/>
      <point x="166" y="718"/>
      <point x="265" y="718" type="curve" smooth="yes"/>
      <point x="518" y="718" type="line"/>
      <point x="15" y="23" type="line"/>
      <point x="15" y="0" type="line"/>
      <point x="747" y="0" type="line"/>
    </contour>
  </outline>
</glyph>
<glyph name="u" format="1">
  <advance width="709"/>
  <unicode hex="0075"/>
  <outline>
    <contour>
      <point x="320" y="651" type="move" name="top"/>
    </contour>
    <contour>
      <point x="297" y="0" type="move" name="bottom"/>
    </contour>
    <contour>
      <point x="465" y="262" type="line" smooth="yes"/>
      <point x="465" y="193"/>
      <point x="455" y="145"/>
      <point x="433" y="109" type="curve" smooth="yes"/>
      <point x="412" y="73"/>
      <point x="382" y="55"/>
      <point x="342" y="55" type="curve" smooth="yes"/>
      <point x="269" y="55"/>
      <point x="237" y="113"/>
      <point x="237" y="247" type="curve" smooth="yes"/>
      <point x="237" y="530" type="line"/>
      <point x="13" y="530" type="line"/>
      <point x="13" y="490" type="line"/>
      <point x="93" y="481"/>
      <point x="98" y="476"/>
      <point x="98" y="366" type="curve" smooth="yes"/>
      <point x="98" y="231" type="line" smooth="yes"/>
      <point x="98" y="158"/>
      <point x="112" y="105"/>
      <point x="141" y="66" type="curve" smooth="yes"/>
      <point x="178" y="16"/>
      <point x="234" y="-10"/>
      <point x="304" y="-10" type="curve" smooth="yes"/>
      <point x="381" y="-10"/>
      <point x="448" y="23"/>
      <point x="482" y="78" type="curve"/>
      <point x="486" y="78" type="line"/>
      <point x="497" y="-11" type="line"/>
      <point x="696" y="1" type="line"/>
      <point x="696" y="40" type="line"/>
      <point x="630" y="40"/>
      <point x="618" y="46"/>
      <point x="611" y="80" type="curve" smooth="yes"/>
      <point x="606" y="102"/>
      <point x="604" y="146"/>
      <point x="604" y="227" type="curve" smooth="yes"/>
      <point x="604" y="530" type="line"/>
      <point x="378" y="530" type="line"/>
      <point x="378" y="490" type="line"/>
      <point x="459" y="482"/>
      <point x="465" y="474"/>
      <point x="465" y="366" type="curve" smooth="yes"/>
    </contour>
  </outline>
</glyph>
<glyph name="braceright" format="1">
  <advance width="354"/>
  <unicode hex="007D"/>
  <outline>
    <contour>
      <point x="117" y="5" type="line"/>
      <point x="117" y="-64"/>
      <point x="98" y="-100"/>
      <point x="26" y="-118" type="curve"/>
      <point x="26" y="-150" type="line"/>
      <point x="191" y="-150"/>
      <point x="241" y="-117"/>
      <point x="241" y="4" type="curve" smooth="yes"/>
      <point x="241" y="195" type="line" smooth="yes"/>
      <point x="241" y="255"/>
      <point x="263" y="319"/>
      <point x="335" y="325" type="curve"/>
      <point x="335" y="360" type="line"/>
      <point x="256" y="375"/>
      <point x="241" y="413"/>
      <point x="241" y="489" type="curve" smooth="yes"/>
      <point x="241" y="659" type="line" smooth="yes"/>
      <point x="241" y="786"/>
      <point x="204" y="830"/>
      <point x="31" y="830" type="curve"/>
      <point x="31" y="797" type="line"/>
      <point x="96" y="782"/>
      <point x="117" y="743"/>
      <point x="117" y="675" type="curve" smooth="yes"/>
      <point x="117" y="501" type="line" smooth="yes"/>
      <point x="117" y="419"/>
      <point x="132" y="363"/>
      <point x="240" y="345" type="curve"/>
      <point x="240" y="340" type="line"/>
      <point x="139" y="326"/>
      <point x="117" y="278"/>
      <point x="117" y="198" type="curve" smooth="yes"/>
    </contour>
  </outline>
</glyph>
<glyph name="sterling" format="1">
  <advance width="708"/>
  <unicode hex="00A3"/>
  <outline>
    <contour>
      <point x="242" y="77" type="curve"/>
      <point x="219" y="59"/>
      <point x="188" y="49"/>
      <point x="158" y="49" type="curve" smooth="yes"/>
      <point x="128" y="49"/>
      <point x="113" y="59"/>
      <point x="113" y="81" type="curve" smooth="yes"/>
      <point x="113" y="101"/>
      <point x="127" y="113"/>
      <point x="151" y="113" type="curve" smooth="yes"/>
      <point x="173" y="113"/>
      <point x="199" y="103"/>
    </contour>
    <contour>
      <point x="307" y="534" type="line" smooth="yes"/>
      <point x="300" y="555"/>
      <point x="293" y="598"/>
      <point x="293" y="621" type="curve" smooth="yes"/>
      <point x="293" y="682"/>
      <point x="341" y="722"/>
      <point x="413" y="722" type="curve" smooth="yes"/>
      <point x="536" y="722"/>
      <point x="487" y="604"/>
      <point x="579" y="604" type="curve" smooth="yes"/>
      <point x="614" y="604"/>
      <point x="633" y="621"/>
      <point x="633" y="655" type="curve" smooth="yes"/>
      <point x="633" y="728"/>
      <point x="545" y="780"/>
      <point x="422" y="780" type="curve" smooth="yes"/>
      <point x="265" y="780"/>
      <point x="165" y="696"/>
      <point x="165" y="564" type="curve" smooth="yes"/>
      <point x="165" y="526"/>
      <point x="173" y="481"/>
      <point x="189" y="431" type="curve"/>
      <point x="78" y="431" type="line"/>
      <point x="78" y="370" type="line"/>
      <point x="209" y="370" type="line"/>
      <point x="245" y="304"/>
      <point x="267" y="240"/>
      <point x="267" y="199" type="curve" smooth="yes"/>
      <point x="267" y="184"/>
      <point x="265" y="152"/>
      <point x="263" y="143" type="curve"/>
      <point x="226" y="160"/>
      <point x="184" y="170"/>
      <point x="150" y="170" type="curve" smooth="yes"/>
      <point x="83" y="170"/>
      <point x="35" y="129"/>
      <point x="35" y="72" type="curve" smooth="yes"/>
      <point x="35" y="21"/>
      <point x="75" y="-11"/>
      <point x="141" y="-11" type="curve" smooth="yes"/>
      <point x="200" y="-11"/>
      <point x="266" y="15"/>
      <point x="293" y="49" type="curve"/>
      <point x="394" y="6"/>
      <point x="451" y="-10"/>
      <point x="507" y="-10" type="curve" smooth="yes"/>
      <point x="612" y="-10"/>
      <point x="665" y="45"/>
      <point x="665" y="154" type="curve"/>
      <point x="654" y="158" type="line"/>
      <point x="616" y="124"/>
      <point x="568" y="109"/>
      <point x="499" y="109" type="curve" smooth="yes"/>
      <point x="451" y="109"/>
      <point x="381" y="116"/>
      <point x="332" y="126" type="curve"/>
      <point x="360" y="164"/>
      <point x="372" y="208"/>
      <point x="372" y="271" type="curve" smooth="yes"/>
      <point x="372" y="306"/>
      <point x="368" y="331"/>
      <point x="358" y="370" type="curve"/>
      <point x="557" y="370" type="line"/>
      <point x="557" y="431" type="line"/>
      <point x="344" y="431" type="line"/>
    </contour>
  </outline>
</glyph>
<glyph name="currency" format="1">
  <advance width="610"/>
  <unicode hex="00A4"/>
  <outline>
    <contour>
      <point x="52" y="57" type="line"/>
      <point x="88" y="23" type="line"/>
      <point x="162" y="94" type="line"/>
      <point x="201" y="63"/>
      <point x="249" y="46"/>
      <point x="305" y="46" type="curve" smooth="yes"/>
      <point x="360" y="46"/>
      <point x="408" y="62"/>
      <point x="448" y="93" type="curve"/>
      <point x="522" y="22" type="line"/>
      <point x="559" y="57" type="line"/>
      <point x="485" y="128" type="line"/>
      <point x="516" y="165"/>
      <point x="534" y="211"/>
      <point x="534" y="263" type="curve" smooth="yes"/>
      <point x="534" y="315"/>
      <point x="516" y="361"/>
      <point x="483" y="399" type="curve"/>
      <point x="559" y="471" type="line"/>
      <point x="522" y="506" type="line"/>
      <point x="447" y="434" type="line"/>
      <point x="407" y="464"/>
      <point x="360" y="481"/>
      <point x="305" y="481" type="curve" smooth="yes"/>
      <point x="250" y="481"/>
      <point x="202" y="464"/>
      <point x="163" y="434" type="curve"/>
      <point x="88" y="506" type="line"/>
      <point x="51" y="471" type="line"/>
      <point x="126" y="399" type="line"/>
      <point x="94" y="361"/>
      <point x="77" y="315"/>
      <point x="77" y="263" type="curve" smooth="yes"/>
      <point x="77" y="211"/>
      <point x="95" y="165"/>
      <point x="126" y="128" type="curve"/>
    </contour>
    <contour>
      <point x="140" y="263" type="curve" smooth="yes"/>
      <point x="140" y="350"/>
      <point x="214" y="421"/>
      <point x="305" y="421" type="curve" smooth="yes"/>
      <point x="396" y="421"/>
      <point x="471" y="350"/>
      <point x="471" y="263" type="curve" smooth="yes"/>
      <point x="471" y="177"/>
      <point x="396" y="106"/>
      <point x="305" y="106" type="curve" smooth="yes"/>
      <point x="214" y="106"/>
      <point x="140" y="177"/>
    </contour>
  </outline>
</glyph>
<glyph name="dieresis" format="1">
  <advance width="365"/>
  <unicode hex="00A8"/>
  <outline>
    <contour>
      <point x="184" y="651" type="move" name="_top"/>
    </contour>
    <contour>
      <point x="20" y="740" type="curve" smooth="yes"/>
      <point x="20" y="704"/>
      <point x="48" y="676"/>
      <point x="84" y="676" type="curve" smooth="yes"/>
      <point x="121" y="676"/>
      <point x="149" y="704"/>
      <point x="149" y="740" type="curve" smooth="yes"/>
      <point x="149" y="777"/>
      <point x="121" y="805"/>
      <point x="84" y="805" type="curve" smooth="yes"/>
      <point x="48" y="805"/>
      <point x="20" y="777"/>
    </contour>
    <contour>
      <point x="216" y="740" type="curve" smooth="yes"/>
      <point x="216" y="704"/>
      <point x="244" y="676"/>
      <point x="280" y="676" type="curve" smooth="yes"/>
      <point x="317" y="676"/>
      <point x="345" y="704"/>
      <point x="345" y="740" type="curve" smooth="yes"/>
      <point x="345" y="777"/>
      <point x="317" y="805"/>
      <point x="280" y="805" type="curve" smooth="yes"/>
      <point x="244" y="805"/>
      <point x="216" y="777"/>
    </contour>
  </outline>
</glyph>
<glyph name="copyright" format="1">
  <advance width="902"/>
  <unicode hex="00A9"/>
  <outline>
    <contour>
      <point x="857" y="386" type="curve" smooth="yes"/>
      <point x="857" y="605"/>
      <point x="675" y="780"/>
      <point x="448" y="780" type="curve" smooth="yes"/>
      <point x="224" y="780"/>
      <point x="45" y="602"/>
      <point x="45" y="385" type="curve" smooth="yes"/>
      <point x="45" y="168"/>
      <point x="225" y="-10"/>
      <point x="449" y="-10" type="curve" smooth="yes"/>
      <point x="675" y="-10"/>
      <point x="857" y="166"/>
    </contour>
    <contour>
      <point x="797" y="386" type="curve" smooth="yes"/>
      <point x="797" y="200"/>
      <point x="640" y="48"/>
      <point x="449" y="48" type="curve" smooth="yes"/>
      <point x="257" y="48"/>
      <point x="105" y="200"/>
      <point x="105" y="385" type="curve" smooth="yes"/>
      <point x="105" y="570"/>
      <point x="256" y="722"/>
      <point x="448" y="722" type="curve" smooth="yes"/>
      <point x="640" y="722"/>
      <point x="797" y="573"/>
    </contour>
    <contour>
      <point x="608" y="305" type="line"/>
      <point x="589" y="242"/>
      <point x="543" y="208"/>
      <point x="475" y="208" type="curve" smooth="yes"/>
      <point x="383" y="208"/>
      <point x="333" y="268"/>
      <point x="333" y="379" type="curve" smooth="yes"/>
      <point x="333" y="492"/>
      <point x="384" y="559"/>
      <point x="473" y="559" type="curve" smooth="yes"/>
      <point x="541" y="559"/>
      <point x="593" y="526"/>
      <point x="610" y="472" type="curve"/>
      <point x="637" y="472" type="line"/>
      <point x="632" y="603" type="line"/>
      <point x="610" y="603" type="line"/>
      <point x="600" y="558" type="line"/>
      <point x="551" y="594"/>
      <point x="513" y="609"/>
      <point x="467" y="609" type="curve" smooth="yes"/>
      <point x="319" y="609"/>
      <point x="217" y="514"/>
      <point x="217" y="375" type="curve" smooth="yes"/>
      <point x="217" y="243"/>
      <point x="312" y="157"/>
      <point x="461" y="157" type="curve" smooth="yes"/>
      <point x="565" y="157"/>
      <point x="623" y="217"/>
      <point x="643" y="305" type="curve"/>
    </contour>
  </outline>
</glyph>
<glyph name="ordfeminine" format="1">
  <advance width="381"/>
  <unicode hex="00AA"/>
  <outline>
    <contour>
      <point x="211" y="620" type="line" smooth="yes"/>
      <point x="211" y="583"/>
      <point x="193" y="552"/>
      <point x="170" y="552" type="curve" smooth="yes"/>
      <point x="151" y="552"/>
      <point x="138" y="564"/>
      <point x="138" y="580" type="curve" smooth="yes"/>
      <point x="138" y="603"/>
      <point x="158" y="626"/>
      <point x="211" y="649" type="curve"/>
    </contour>
    <contour>
      <point x="148" y="656" type="line" smooth="yes"/>
      <point x="76" y="625"/>
      <point x="53" y="602"/>
      <point x="53" y="566" type="curve" smooth="yes"/>
      <point x="53" y="531"/>
      <point x="85" y="507"/>
      <point x="134" y="507" type="curve" smooth="yes"/>
      <point x="168" y="507"/>
      <point x="196" y="522"/>
      <point x="212" y="545" type="curve"/>
      <point x="216" y="545" type="line"/>
      <point x="216" y="520"/>
      <point x="234" y="507"/>
      <point x="273" y="507" type="curve" smooth="yes"/>
      <point x="301" y="507"/>
      <point x="330" y="518"/>
      <point x="341" y="534" type="curve"/>
      <point x="333" y="556" type="line"/>
      <point x="327" y="546"/>
      <point x="320" y="543"/>
      <point x="308" y="543" type="curve" smooth="yes"/>
      <point x="292" y="543"/>
      <point x="285" y="563"/>
      <point x="285" y="601" type="curve" smooth="yes"/>
      <point x="285" y="703" type="line" smooth="yes"/>
      <point x="285" y="759"/>
      <point x="257" y="780"/>
      <point x="178" y="780" type="curve" smooth="yes"/>
      <point x="99" y="780"/>
      <point x="57" y="748"/>
      <point x="57" y="714" type="curve" smooth="yes"/>
      <point x="57" y="693"/>
      <point x="74" y="686"/>
      <point x="89" y="686" type="curve" smooth="yes"/>
      <point x="106" y="686"/>
      <point x="114" y="696"/>
      <point x="121" y="715" type="curve" smooth="yes"/>
      <point x="130" y="740"/>
      <point x="138" y="746"/>
      <point x="169" y="746" type="curve" smooth="yes"/>
      <point x="198" y="746"/>
      <point x="211" y="732"/>
      <point x="211" y="701" type="curve" smooth="yes"/>
      <point x="211" y="687" type="line"/>
    </contour>
  </outline>
</glyph>
<glyph name="guillemotleft" format="1">
  <advance width="553"/>
  <unicode hex="00AB"/>
  <outline>
    <contour>
      <point x="238" y="77" type="line"/>
      <point x="272" y="101" type="line"/>
      <point x="182" y="262" type="line"/>
      <point x="274" y="424" type="line"/>
      <point x="242" y="447" type="line"/>
      <point x="46" y="262" type="line"/>
    </contour>
    <contour>
      <point x="458" y="77" type="line"/>
      <point x="492" y="101" type="line"/>
      <point x="402" y="262" type="line"/>
      <point x="494" y="424" type="line"/>
      <point x="462" y="447" type="line"/>
      <point x="266" y="262" type="line"/>
    </contour>
  </outline>
</glyph>
<glyph name="logicalnot" format="1">
  <advance width="637"/>
  <unicode hex="00AC"/>
  <outline>
    <contour>
      <point x="489" y="110" type="line"/>
      <point x="561" y="110" type="line"/>
      <point x="561" y="373" type="line"/>
      <point x="71" y="373" type="line"/>
      <point x="71" y="303" type="line"/>
      <point x="489" y="303" type="line"/>
    </contour>
  </outline>
</glyph>
<glyph name="acute" format="1">
  <advance width="299"/>
  <unicode hex="00B4"/>
  <outline>
    <contour>
      <point x="116" y="651" type="move" name="_top"/>
    </contour>
    <contour>
      <point x="75" y="651" type="line"/>
      <point x="214" y="711" type="line" smooth="yes"/>
      <point x="256" y="729"/>
      <point x="283" y="745"/>
      <point x="283" y="768" type="curve" smooth="yes"/>
      <point x="283" y="796"/>
      <point x="261" y="813"/>
      <point x="228" y="813" type="curve" smooth="yes"/>
      <point x="201" y="813"/>
      <point x="175" y="800"/>
      <point x="143" y="770" type="curve" smooth="yes"/>
      <point x="16" y="651" type="line"/>
    </contour>
  </outline>
</glyph>
<glyph name="guillemotright" format="1">
  <advance width="553"/>
  <unicode hex="00BB"/>
  <outline>
    <contour>
      <point x="507" y="262" type="line"/>
      <point x="311" y="447" type="line"/>
      <point x="279" y="424" type="line"/>
      <point x="371" y="262" type="line"/>
      <point x="281" y="101" type="line"/>
      <point x="315" y="77" type="line"/>
    </contour>
    <contour>
      <point x="287" y="262" type="line"/>
      <point x="91" y="447" type="line"/>
      <point x="59" y="424" type="line"/>
      <point x="151" y="262" type="line"/>
      <point x="61" y="101" type="line"/>
      <point x="95" y="77" type="line"/>
    </contour>
  </outline>
</glyph>
<glyph name="AE" format="1">
  <advance width="1136"/>
  <unicode hex="00C6"/>
  <outline>
    <contour>
      <point x="406" y="41" type="curve"/>
      <point x="406" y="0" type="line"/>
      <point x="1085" y="0" type="line"/>
      <point x="1100" y="227" type="line"/>
      <point x="1056" y="227" type="line"/>
      <point x="1029" y="93"/>
      <point x="978" y="53"/>
      <point x="833" y="53" type="curve" smooth="yes"/>
      <point x="700" y="53"/>
      <point x="658" y="80"/>
      <point x="658" y="167" type="curve" smooth="yes"/>
      <point x="658" y="376" type="line"/>
      <point x="832" y="375"/>
      <point x="850" y="355"/>
      <point x="866" y="255" type="curve"/>
      <point x="903" y="255" type="line"/>
      <point x="903" y="548" type="line"/>
      <point x="866" y="548" type="line"/>
      <point x="854" y="441"/>
      <point x="830" y="426"/>
      <point x="658" y="426" type="curve"/>
      <point x="658" y="700" type="line" smooth="yes"/>
      <point x="658" y="710"/>
      <point x="665" y="717"/>
      <point x="676" y="717" type="curve" smooth="yes"/>
      <point x="810" y="717" type="line" smooth="yes"/>
      <point x="949" y="717"/>
      <point x="996" y="688"/>
      <point x="1012" y="574" type="curve"/>
      <point x="1054" y="574" type="line"/>
      <point x="1054" y="770" type="line"/>
      <point x="331" y="770" type="line"/>
      <point x="331" y="722" type="line"/>
      <point x="389" y="722"/>
      <point x="414" y="717"/>
      <point x="414" y="699" type="curve" smooth="yes"/>
      <point x="414" y="692"/>
      <point x="411" y="684"/>
      <point x="406" y="674" type="curve" smooth="yes"/>
      <point x="169" y="242"/>
      <point x="142" y="189"/>
      <point x="103" y="122" type="curve" smooth="yes"/>
      <point x="70" y="66"/>
      <point x="42" y="48"/>
      <point x="-22" y="41" type="curve"/>
      <point x="-22" y="0" type="line"/>
      <point x="250" y="0" type="line"/>
      <point x="250" y="41" type="line"/>
      <point x="214" y="44"/>
      <point x="173" y="41"/>
      <point x="173" y="83" type="curve" smooth="yes"/>
      <point x="173" y="107"/>
      <point x="174" y="114"/>
      <point x="263" y="274" type="curve"/>
      <point x="511" y="274" type="line"/>
      <point x="511" y="155" type="line" smooth="yes"/>
      <point x="511" y="61"/>
      <point x="495" y="44"/>
    </contour>
    <contour>
      <point x="297" y="334" type="line"/>
      <point x="511" y="721" type="line"/>
      <point x="511" y="334" type="line"/>
    </contour>
  </outline>
</glyph>
<glyph name="germandbls" format="1">
  <advance width="711"/>
  <unicode hex="00DF"/>
  <outline>
    <contour>
      <point x="358" y="830" type="curve" smooth="yes"/>
      <point x="198" y="830"/>
      <point x="107" y="742"/>
      <point x="107" y="586" type="curve" smooth="yes"/>
      <point x="107" y="156" type="line" smooth="yes"/>
      <point x="107" y="56"/>
      <point x="95" y="41"/>
      <point x="16" y="41" type="curve"/>
      <point x="16" y="0" type="line"/>
      <point x="294" y="0" type="line"/>
      <point x="294" y="41" type="line"/>
      <point x="255" y="41"/>
      <point x="246" y="65"/>
      <point x="246" y="164" type="curve" smooth="yes"/>
      <point x="246" y="592" type="line" smooth="yes"/>
      <point x="246" y="718"/>
      <point x="278" y="770"/>
      <point x="356" y="770" type="curve" smooth="yes"/>
      <point x="429" y="770"/>
      <point x="463" y="726"/>
      <point x="463" y="633" type="curve" smooth="yes"/>
      <point x="463" y="536"/>
      <point x="425" y="492"/>
      <point x="342" y="492" type="curve"/>
      <point x="342" y="431" type="line"/>
      <point x="456" y="431"/>
      <point x="522" y="351"/>
      <point x="522" y="211" type="curve" smooth="yes"/>
      <point x="522" y="116"/>
      <point x="494" y="46"/>
      <point x="455" y="46" type="curve" smooth="yes"/>
      <point x="414" y="46"/>
      <point x="424" y="123"/>
      <point x="368" y="123" type="curve" smooth="yes"/>
      <point x="339" y="123"/>
      <point x="321" y="104"/>
      <point x="321" y="76" type="curve" smooth="yes"/>
      <point x="321" y="25"/>
      <point x="373" y="-10"/>
      <point x="449" y="-10" type="curve" smooth="yes"/>
      <point x="578" y="-10"/>
      <point x="673" y="89"/>
      <point x="673" y="223" type="curve" smooth="yes"/>
      <point x="673" y="357"/>
      <point x="581" y="462"/>
      <point x="462" y="462" type="curve"/>
      <point x="462" y="467" type="line"/>
      <point x="559" y="485"/>
      <point x="614" y="546"/>
      <point x="614" y="636" type="curve" smooth="yes"/>
      <point x="614" y="752"/>
      <point x="512" y="830"/>
    </contour>
  </outline>
</glyph>
<glyph name="Dcroat" format="1">
  <advance width="920"/>
  <unicode hex="0110"/>
  <outline>
    <contour>
      <point x="54" y="370" type="line"/>
      <point x="54" y="430" type="line"/>
      <point x="421" y="430" type="line"/>
      <point x="421" y="370" type="line"/>
    </contour>
    <component base="D" xOffset="1"/>
  </outline>
</glyph>
<glyph name="Hbar" format="1">
  <advance width="949"/>
  <unicode hex="0126"/>
  <outline>
    <contour>
      <point x="70" y="541" type="line"/>
      <point x="70" y="601" type="line"/>
      <point x="882" y="601" type="line"/>
      <point x="882" y="541" type="line"/>
    </contour>
    <component base="H" xOffset="2"/>
  </outline>
</glyph>
<glyph name="Schwa" format="1">
  <advance width="853"/>
  <unicode hex="018F"/>
  <outline>
    <contour>
      <point x="107" y="596" type="line"/>
      <point x="191" y="685"/>
      <point x="258" y="714"/>
      <point x="361" y="714" type="curve" smooth="yes"/>
      <point x="528" y="714"/>
      <point x="634" y="586"/>
      <point x="634" y="382" type="curve" smooth="yes"/>
      <point x="634" y="357"/>
      <point x="634" y="334"/>
      <point x="628" y="318" type="curve"/>
      <point x="86" y="318" type="line" smooth="yes"/>
      <point x="45" y="318"/>
      <point x="39" y="315"/>
      <point x="39" y="289" type="curve" smooth="yes"/>
      <point x="39" y="102"/>
      <point x="160" y="-10"/>
      <point x="365" y="-10" type="curve" smooth="yes"/>
      <point x="624" y="-10"/>
      <point x="807" y="158"/>
      <point x="807" y="394" type="curve" smooth="yes"/>
      <point x="807" y="624"/>
      <point x="636" y="781"/>
      <point x="383" y="781" type="curve" smooth="yes"/>
      <point x="255" y="781"/>
      <point x="147" y="738"/>
      <point x="60" y="637" type="curve"/>
    </contour>
    <contour>
      <point x="618" y="245" type="line"/>
      <point x="591" y="121"/>
      <point x="511" y="58"/>
      <point x="390" y="58" type="curve" smooth="yes"/>
      <point x="265" y="58"/>
      <point x="188" y="116"/>
      <point x="188" y="204" type="curve" smooth="yes"/>
      <point x="188" y="239"/>
      <point x="196" y="245"/>
      <point x="278" y="245" type="curve" smooth="yes"/>
    </contour>
  </outline>
</glyph>
<glyph name="florin" format="1">
  <advance width="723"/>
  <unicode hex="0192"/>
  <outline>
    <contour>
      <point x="55" y="-201" type="curve" smooth="yes"/>
      <point x="30" y="-201"/>
      <point x="27" y="-198"/>
      <point x="-11" y="-148" type="curve" smooth="yes"/>
      <point x="-35" y="-116"/>
      <point x="-52" y="-104"/>
      <point x="-75" y="-104" type="curve" smooth="yes"/>
      <point x="-105" y="-104"/>
      <point x="-126" y="-126"/>
      <point x="-126" y="-156" type="curve" smooth="yes"/>
      <point x="-126" y="-213"/>
      <point x="-50" y="-260"/>
      <point x="40" y="-260" type="curve" smooth="yes"/>
      <point x="133" y="-260"/>
      <point x="202" y="-209"/>
      <point x="258" y="-99" type="curve" smooth="yes"/>
      <point x="293" y="-30"/>
      <point x="313" y="45"/>
      <point x="345" y="226" type="curve" smooth="yes"/>
      <point x="380" y="425" type="line"/>
      <point x="502" y="425" type="line"/>
      <point x="516" y="480" type="line"/>
      <point x="386" y="480" type="line"/>
      <point x="394" y="523" type="line" smooth="yes"/>
      <point x="419" y="662"/>
      <point x="457" y="722"/>
      <point x="519" y="722" type="curve" smooth="yes"/>
      <point x="545" y="722"/>
      <point x="558" y="713"/>
      <point x="603" y="664" type="curve" smooth="yes"/>
      <point x="623" y="642"/>
      <point x="635" y="635"/>
      <point x="657" y="635" type="curve" smooth="yes"/>
      <point x="689" y="635"/>
      <point x="707" y="652"/>
      <point x="707" y="681" type="curve" smooth="yes"/>
      <point x="707" y="739"/>
      <point x="639" y="780"/>
      <point x="544" y="780" type="curve" smooth="yes"/>
      <point x="397" y="780"/>
      <point x="288" y="683"/>
      <point x="256" y="525" type="curve" smooth="yes"/>
      <point x="247" y="480" type="line"/>
      <point x="142" y="480" type="line"/>
      <point x="127" y="425" type="line"/>
      <point x="237" y="425" type="line"/>
      <point x="182" y="82" type="line" smooth="yes"/>
      <point x="148" y="-127"/>
      <point x="115" y="-201"/>
    </contour>
  </outline>
</glyph>
<glyph name="uni03BC" format="1">
  <advance width="720"/>
  <unicode hex="03BC"/>
  <outline>
    <contour>
      <point x="356" y="651" type="move" name="top"/>
    </contour>
    <contour>
      <point x="333" y="0" type="move" name="bottom"/>
    </contour>
    <contour>
      <point x="192" y="92" type="line"/>
      <point x="227" y="22"/>
      <point x="281" y="-10"/>
      <point x="343" y="-10" type="curve" smooth="yes"/>
      <point x="414" y="-10"/>
      <point x="460" y="14"/>
      <point x="489" y="78" type="curve"/>
      <point x="493" y="78" type="line"/>
      <point x="504" y="-11" type="line"/>
      <point x="703" y="1" type="line"/>
      <point x="703" y="40" type="line"/>
      <point x="638" y="40"/>
      <point x="624" y="47"/>
      <point x="618" y="80" type="curve" smooth="yes"/>
      <point x="613" y="104"/>
      <point x="611" y="148"/>
      <point x="611" y="223" type="curve" smooth="yes"/>
      <point x="611" y="530" type="line"/>
      <point x="386" y="530" type="line"/>
      <point x="386" y="490" type="line"/>
      <point x="467" y="482"/>
      <point x="473" y="473"/>
      <point x="473" y="365" type="curve" smooth="yes"/>
      <point x="473" y="272" type="line" smooth="yes"/>
      <point x="473" y="218"/>
      <point x="463" y="161"/>
      <point x="450" y="128" type="curve"/>
      <point x="425" y="74"/>
      <point x="395" y="55"/>
      <point x="347" y="55" type="curve" smooth="yes"/>
      <point x="276" y="55"/>
      <point x="244" y="115"/>
      <point x="244" y="257" type="curve" smooth="yes"/>
      <point x="244" y="530" type="line"/>
      <point x="20" y="530" type="line"/>
      <point x="20" y="490" type="line"/>
      <point x="101" y="483"/>
      <point x="105" y="474"/>
      <point x="105" y="365" type="curve" smooth="yes"/>
      <point x="105" y="-178" type="line" smooth="yes"/>
      <point x="105" y="-225"/>
      <point x="138" y="-260"/>
      <point x="182" y="-260" type="curve" smooth="yes"/>
      <point x="224" y="-260"/>
      <point x="251" y="-233"/>
      <point x="251" y="-189" type="curve" smooth="yes"/>
      <point x="251" y="-142"/>
      <point x="213" y="10"/>
      <point x="188" y="91" type="curve"/>
    </contour>
  </outline>
</glyph>
<glyph name="quoteleft" format="1">
  <advance width="247"/>
  <unicode hex="2018"/>
  <outline>
    <contour>
      <point x="166" y="830" type="line"/>
      <point x="86" y="770"/>
      <point x="44" y="702"/>
      <point x="44" y="634" type="curve" smooth="yes"/>
      <point x="44" y="577"/>
      <point x="73" y="540"/>
      <point x="119" y="540" type="curve" smooth="yes"/>
      <point x="163" y="540"/>
      <point x="196" y="573"/>
      <point x="196" y="617" type="curve" smooth="yes"/>
      <point x="196" y="653"/>
      <point x="173" y="681"/>
      <point x="142" y="681" type="curve" smooth="yes"/>
      <point x="135" y="681"/>
      <point x="125" y="680"/>
      <point x="120" y="678" type="curve"/>
      <point x="120" y="711"/>
      <point x="147" y="751"/>
      <point x="195" y="788" type="curve"/>
    </contour>
  </outline>
</glyph>
<glyph name="quotedblleft" format="1">
  <advance width="453"/>
  <unicode hex="201C"/>
  <outline>
    <contour>
      <point x="372" y="830" type="line"/>
      <point x="292" y="770"/>
      <point x="250" y="702"/>
      <point x="250" y="634" type="curve" smooth="yes"/>
      <point x="250" y="577"/>
      <point x="279" y="540"/>
      <point x="325" y="540" type="curve" smooth="yes"/>
      <point x="369" y="540"/>
      <point x="402" y="573"/>
      <point x="402" y="617" type="curve" smooth="yes"/>
      <point x="402" y="653"/>
      <point x="379" y="681"/>
      <point x="348" y="681" type="curve" smooth="yes"/>
      <point x="341" y="681"/>
      <point x="331" y="680"/>
      <point x="326" y="678" type="curve"/>
      <point x="326" y="711"/>
      <point x="353" y="751"/>
      <point x="401" y="788" type="curve"/>
    </contour>
    <contour>
      <point x="166" y="830" type="line"/>
      <point x="86" y="770"/>
      <point x="44" y="702"/>
      <point x="44" y="634" type="curve" smooth="yes"/>
      <point x="44" y="577"/>
      <point x="73" y="540"/>
      <point x="119" y="540" type="curve" smooth="yes"/>
      <point x="163" y="540"/>
      <point x="196" y="573"/>
      <point x="196" y="617" type="curve" smooth="yes"/>
      <point x="196" y="653"/>
      <point x="173" y="681"/>
      <point x="142" y="681" type="curve" smooth="yes"/>
      <point x="135" y="681"/>
      <point x="125" y="680"/>
      <point x="120" y="678" type="curve"/>
      <point x="120" y="711"/>
      <point x="147" y="751"/>
      <point x="195" y="788" type="curve"/>
    </contour>
  </outline>
</glyph>
<glyph name="dagger" format="1">
  <advance width="580"/>
  <unicode hex="2020"/>
  <outline>
    <contour>
      <point x="92" y="424" type="curve" smooth="yes"/>
      <point x="140" y="424"/>
      <point x="169" y="458"/>
      <point x="265" y="466" type="curve"/>
      <point x="264" y="368"/>
      <point x="243" y="317"/>
      <point x="197" y="261" type="curve"/>
      <point x="233" y="153"/>
      <point x="265" y="-93"/>
      <point x="265" y="-260" type="curve"/>
      <point x="317" y="-260" type="line"/>
      <point x="317" y="-93"/>
      <point x="349" y="153"/>
      <point x="385" y="261" type="curve"/>
      <point x="339" y="317"/>
      <point x="317" y="368"/>
      <point x="317" y="466" type="curve"/>
      <point x="410" y="458"/>
      <point x="440" y="424"/>
      <point x="488" y="424" type="curve" smooth="yes"/>
      <point x="525" y="424"/>
      <point x="553" y="453"/>
      <point x="553" y="491" type="curve" smooth="yes"/>
      <point x="553" y="529"/>
      <point x="525" y="558"/>
      <point x="488" y="558" type="curve" smooth="yes"/>
      <point x="440" y="558"/>
      <point x="412" y="524"/>
      <point x="317" y="515" type="curve"/>
      <point x="322" y="631"/>
      <point x="361" y="659"/>
      <point x="361" y="713" type="curve" smooth="yes"/>
      <point x="361" y="751"/>
      <point x="331" y="780"/>
      <point x="291" y="780" type="curve" smooth="yes"/>
      <point x="251" y="780"/>
      <point x="221" y="751"/>
      <point x="221" y="713" type="curve" smooth="yes"/>
      <point x="221" y="658"/>
      <point x="261" y="630"/>
      <point x="264" y="515" type="curve"/>
      <point x="168" y="523"/>
      <point x="139" y="558"/>
      <point x="92" y="558" type="curve" smooth="yes"/>
      <point x="55" y="558"/>
      <point x="27" y="529"/>
      <point x="27" y="491" type="curve" smooth="yes"/>
      <point x="27" y="453"/>
      <point x="55" y="424"/>
    </contour>
  </outline>
</glyph>
<glyph name="foursuperior" format="1">
  <advance width="283"/>
  <unicode hex="2074"/>
  <outline>
    <contour>
      <point x="12" y="570" type="line"/>
      <point x="167" y="780" type="line"/>
      <point x="198" y="780" type="line"/>
      <point x="198" y="569" type="line"/>
      <point x="233" y="570"/>
      <point x="237" y="574"/>
      <point x="237" y="605" type="curve"/>
      <point x="256" y="605" type="line"/>
      <point x="256" y="511" type="line"/>
      <point x="237" y="511" type="line"/>
      <point x="237" y="536"/>
      <point x="232" y="540"/>
      <point x="198" y="541" type="curve"/>
      <point x="198" y="533" type="line" smooth="yes"/>
      <point x="198" y="496"/>
      <point x="203" y="489"/>
      <point x="231" y="488" type="curve"/>
      <point x="231" y="468" type="line"/>
      <point x="87" y="468" type="line"/>
      <point x="87" y="488" type="line"/>
      <point x="125" y="490"/>
      <point x="131" y="496"/>
      <point x="131" y="530" type="curve" smooth="yes"/>
      <point x="131" y="540" type="line"/>
      <point x="12" y="540" type="line"/>
    </contour>
    <contour>
      <point x="131" y="681" type="line"/>
      <point x="127" y="681" type="line"/>
      <point x="47" y="570" type="line"/>
      <point x="131" y="570" type="line"/>
    </contour>
  </outline>
</glyph>
<glyph name="sixsuperior" format="1">
  <advance width="296"/>
  <unicode hex="2076"/>
  <outline>
    <contour>
      <point x="270" y="574" type="curve" smooth="yes"/>
      <point x="270" y="631"/>
      <point x="226" y="676"/>
      <point x="170" y="676" type="curve" smooth="yes"/>
      <point x="142" y="676"/>
      <point x="116" y="665"/>
      <point x="99" y="640" type="curve"/>
      <point x="95" y="641" type="line"/>
      <point x="95" y="704"/>
      <point x="126" y="747"/>
      <point x="160" y="747" type="curve" smooth="yes"/>
      <point x="195" y="747"/>
      <point x="191" y="708"/>
      <point x="221" y="708" type="curve" smooth="yes"/>
      <point x="236" y="708"/>
      <point x="246" y="718"/>
      <point x="246" y="733" type="curve" smooth="yes"/>
      <point x="246" y="759"/>
      <point x="212" y="780"/>
      <point x="170" y="780" type="curve" smooth="yes"/>
      <point x="92" y="780"/>
      <point x="29" y="702"/>
      <point x="29" y="605" type="curve" smooth="yes"/>
      <point x="29" y="521"/>
      <point x="78" y="464"/>
      <point x="150" y="464" type="curve" smooth="yes"/>
      <point x="217" y="464"/>
      <point x="270" y="512"/>
    </contour>
    <contour>
      <point x="102" y="596" type="line"/>
      <point x="119" y="628"/>
      <point x="135" y="642"/>
      <point x="156" y="642" type="curve" smooth="yes"/>
      <point x="184" y="642"/>
      <point x="198" y="617"/>
      <point x="198" y="567" type="curve" smooth="yes"/>
      <point x="198" y="515"/>
      <point x="182" y="487"/>
      <point x="151" y="487" type="curve" smooth="yes"/>
      <point x="118" y="487"/>
      <point x="102" y="517"/>
      <point x="102" y="576" type="curve" smooth="yes"/>
    </contour>
  </outline>
</glyph>
<glyph name="eightsuperior" format="1">
  <advance width="282"/>
  <unicode hex="2078"/>
  <outline>
    <contour>
      <point x="153" y="595" type="line" smooth="yes"/>
      <point x="189" y="571"/>
      <point x="195" y="560"/>
      <point x="195" y="546" type="curve" smooth="yes"/>
      <point x="195" y="517"/>
      <point x="171" y="497"/>
      <point x="144" y="497" type="curve" smooth="yes"/>
      <point x="107" y="497"/>
      <point x="84" y="517"/>
      <point x="84" y="552" type="curve" smooth="yes"/>
      <point x="84" y="578"/>
      <point x="101" y="597"/>
      <point x="127" y="609" type="curve"/>
    </contour>
    <contour>
      <point x="186" y="641" type="curve"/>
      <point x="216" y="658"/>
      <point x="240" y="676"/>
      <point x="240" y="710" type="curve" smooth="yes"/>
      <point x="240" y="732"/>
      <point x="228" y="751"/>
      <point x="209" y="763" type="curve" smooth="yes"/>
      <point x="190" y="775"/>
      <point x="164" y="780"/>
      <point x="140" y="780" type="curve" smooth="yes"/>
      <point x="114" y="780"/>
      <point x="86" y="774"/>
      <point x="67" y="758" type="curve" smooth="yes"/>
      <point x="50" y="743"/>
      <point x="39" y="722"/>
      <point x="39" y="701" type="curve" smooth="yes"/>
      <point x="39" y="662"/>
      <point x="67" y="639"/>
      <point x="99" y="622" type="curve"/>
      <point x="62" y="606"/>
      <point x="29" y="581"/>
      <point x="29" y="539" type="curve" smooth="yes"/>
      <point x="29" y="488"/>
      <point x="91" y="464"/>
      <point x="140" y="464" type="curve" smooth="yes"/>
      <point x="200" y="464"/>
      <point x="253" y="498"/>
      <point x="253" y="553" type="curve" smooth="yes"/>
      <point x="253" y="595"/>
      <point x="223" y="623"/>
    </contour>
    <contour>
      <point x="138" y="665" type="line" smooth="yes"/>
      <point x="113" y="678"/>
      <point x="101" y="692"/>
      <point x="101" y="708" type="curve" smooth="yes"/>
      <point x="101" y="731"/>
      <point x="118" y="747"/>
      <point x="146" y="747" type="curve" smooth="yes"/>
      <point x="178" y="747"/>
      <point x="191" y="728"/>
      <point x="191" y="704" type="curve" smooth="yes"/>
      <point x="191" y="686"/>
      <point x="174" y="665"/>
      <point x="158" y="655" type="curve"/>
    </contour>
  </outline>
</glyph>
<glyph name="twoinferior" format="1">
  <advance width="284"/>
  <unicode hex="2082"/>
  <outline>
    <contour>
      <point x="105" y="48" type="line"/>
      <point x="184" y="104"/>
      <point x="248" y="162"/>
      <point x="248" y="226" type="curve" smooth="yes"/>
      <point x="248" y="276"/>
      <point x="202" y="312"/>
      <point x="137" y="312" type="curve" smooth="yes"/>
      <point x="74" y="312"/>
      <point x="28" y="277"/>
      <point x="28" y="229" type="curve" smooth="yes"/>
      <point x="28" y="194"/>
      <point x="53" y="169"/>
      <point x="86" y="169" type="curve" smooth="yes"/>
      <point x="107" y="169"/>
      <point x="122" y="180"/>
      <point x="124" y="195" type="curve"/>
      <point x="103" y="195"/>
      <point x="88" y="212"/>
      <point x="88" y="238" type="curve" smooth="yes"/>
      <point x="88" y="261"/>
      <point x="106" y="279"/>
      <point x="129" y="279" type="curve" smooth="yes"/>
      <point x="159" y="279"/>
      <point x="177" y="259"/>
      <point x="177" y="226" type="curve" smooth="yes"/>
      <point x="177" y="171"/>
      <point x="149" y="124"/>
      <point x="29" y="18" type="curve"/>
      <point x="29" y="0" type="line"/>
      <point x="240" y="0" type="line"/>
      <point x="255" y="85" type="line"/>
      <point x="229" y="85" type="line"/>
      <point x="219" y="52"/>
      <point x="208" y="44"/>
      <point x="184" y="44" type="curve" smooth="yes"/>
      <point x="105" y="44" type="line"/>
    </contour>
  </outline>
</glyph>
<glyph name="seveninferior" format="1">
  <advance width="231"/>
  <unicode hex="2087"/>
  <outline>
    <contour>
      <point x="122" y="158" type="line"/>
      <point x="57" y="43"/>
      <point x="49" y="27"/>
      <point x="49" y="13" type="curve" smooth="yes"/>
      <point x="49" y="0"/>
      <point x="55" y="-10"/>
      <point x="73" y="-10" type="curve" smooth="yes"/>
      <point x="91" y="-10"/>
      <point x="107" y="0"/>
      <point x="120" y="34" type="curve" smooth="yes"/>
      <point x="154" y="123"/>
      <point x="168" y="166"/>
      <point x="227" y="294" type="curve"/>
      <point x="227" y="302" type="line"/>
      <point x="99" y="302" type="line" smooth="yes"/>
      <point x="72" y="302"/>
      <point x="66" y="304"/>
      <point x="66" y="314" type="curve" smooth="yes"/>
      <point x="66" y="317"/>
      <point x="67" y="324"/>
      <point x="68" y="326" type="curve"/>
      <point x="46" y="326" type="line"/>
      <point x="17" y="214" type="line"/>
      <point x="38" y="214" type="line"/>
      <point x="44" y="230" type="line"/>
      <point x="56" y="254"/>
      <point x="62" y="257"/>
      <point x="106" y="257" type="curve" smooth="yes"/>
      <point x="174" y="257" type="line"/>
    </contour>
  </outline>
</glyph>
<glyph name="eightinferior" format="1">
  <advance width="282"/>
  <unicode hex="2088"/>
  <outline>
    <contour>
      <point x="153" y="121" type="line"/>
      <point x="189" y="97"/>
      <point x="195" y="86"/>
      <point x="195" y="72" type="curve" smooth="yes"/>
      <point x="195" y="43"/>
      <point x="171" y="23"/>
      <point x="144" y="23" type="curve" smooth="yes"/>
      <point x="107" y="23"/>
      <point x="84" y="43"/>
      <point x="84" y="78" type="curve" smooth="yes"/>
      <point x="84" y="104"/>
      <point x="101" y="123"/>
      <point x="127" y="135" type="curve"/>
    </contour>
    <contour>
      <point x="186" y="167" type="curve"/>
      <point x="216" y="184"/>
      <point x="240" y="202"/>
      <point x="240" y="236" type="curve" smooth="yes"/>
      <point x="240" y="258"/>
      <point x="228" y="277"/>
      <point x="209" y="289" type="curve" smooth="yes"/>
      <point x="190" y="301"/>
      <point x="164" y="306"/>
      <point x="140" y="306" type="curve" smooth="yes"/>
      <point x="114" y="306"/>
      <point x="86" y="300"/>
      <point x="67" y="284" type="curve" smooth="yes"/>
      <point x="50" y="269"/>
      <point x="39" y="248"/>
      <point x="39" y="227" type="curve" smooth="yes"/>
      <point x="39" y="188"/>
      <point x="67" y="165"/>
      <point x="99" y="148" type="curve"/>
      <point x="62" y="132"/>
      <point x="29" y="107"/>
      <point x="29" y="65" type="curve" smooth="yes"/>
      <point x="29" y="14"/>
      <point x="91" y="-10"/>
      <point x="140" y="-10" type="curve" smooth="yes"/>
      <point x="200" y="-10"/>
      <point x="253" y="24"/>
      <point x="253" y="79" type="curve" smooth="yes"/>
      <point x="253" y="121"/>
      <point x="223" y="149"/>
    </contour>
    <contour>
      <point x="138" y="191" type="line" smooth="yes"/>
      <point x="113" y="204"/>
      <point x="101" y="218"/>
      <point x="101" y="234" type="curve" smooth="yes"/>
      <point x="101" y="257"/>
      <point x="118" y="273"/>
      <point x="146" y="273" type="curve" smooth="yes"/>
      <point x="178" y="273"/>
      <point x="191" y="254"/>
      <point x="191" y="230" type="curve" smooth="yes"/>
      <point x="191" y="212"/>
      <point x="174" y="191"/>
      <point x="158" y="181" type="curve"/>
    </contour>
  </outline>
</glyph>
<glyph name="nineinferior" format="1">
  <advance width="298"/>
  <unicode hex="2089"/>
  <outline>
    <contour>
      <point x="28" y="196" type="curve" smooth="yes"/>
      <point x="28" y="145"/>
      <point x="72" y="104"/>
      <point x="128" y="104" type="curve" smooth="yes"/>
      <point x="156" y="104"/>
      <point x="181" y="115"/>
      <point x="198" y="140" type="curve"/>
      <point x="202" y="137" type="line"/>
      <point x="202" y="68"/>
      <point x="172" y="23"/>
      <point x="137" y="23" type="curve" smooth="yes"/>
      <point x="98" y="23"/>
      <point x="101" y="62"/>
      <point x="67" y="62" type="curve" smooth="yes"/>
      <point x="52" y="62"/>
      <point x="42" y="52"/>
      <point x="42" y="37" type="curve" smooth="yes"/>
      <point x="42" y="11"/>
      <point x="81" y="-10"/>
      <point x="127" y="-10" type="curve" smooth="yes"/>
      <point x="206" y="-10"/>
      <point x="269" y="68"/>
      <point x="269" y="164" type="curve" smooth="yes"/>
      <point x="269" y="249"/>
      <point x="220" y="306"/>
      <point x="148" y="306" type="curve" smooth="yes"/>
      <point x="81" y="306"/>
      <point x="28" y="258"/>
    </contour>
    <contour>
      <point x="196" y="184" type="line"/>
      <point x="178" y="151"/>
      <point x="162" y="138"/>
      <point x="141" y="138" type="curve" smooth="yes"/>
      <point x="113" y="138"/>
      <point x="100" y="160"/>
      <point x="100" y="205" type="curve" smooth="yes"/>
      <point x="100" y="256"/>
      <point x="117" y="283"/>
      <point x="148" y="283" type="curve" smooth="yes"/>
      <point x="180" y="283"/>
      <point x="196" y="256"/>
      <point x="196" y="204" type="curve" smooth="yes"/>
    </contour>
  </outline>
</glyph>
<glyph name="seveneighths" format="1">
  <advance width="715"/>
  <unicode hex="215E"/>
  <outline>
    <contour>
      <point x="679" y="770" type="line"/>
      <point x="608" y="770" type="line"/>
      <point x="28" y="0" type="line"/>
      <point x="108" y="0" type="line"/>
    </contour>
    <component base="eightinferior" xOffset="364"/>
    <component base="sevensuperior" xOffset="107"/>
  </outline>
</glyph>
<glyph name="f_f_i" format="1">
  <advance width="1044"/>
  <unicode hex="FB03"/>
  <outline>
    <contour>
      <point x="940" y="540" type="line"/>
      <point x="757" y="514" type="line"/>
      <point x="601" y="514" type="line"/>
      <point x="601" y="592" type="line" smooth="yes"/>
      <point x="601" y="730"/>
      <point x="641" y="772"/>
      <point x="698" y="772" type="curve" smooth="yes"/>
      <point x="730" y="772"/>
      <point x="764" y="761"/>
      <point x="797" y="728" type="curve" smooth="yes"/>
      <point x="827" y="698"/>
      <point x="846" y="688"/>
      <point x="872" y="688" type="curve" smooth="yes"/>
      <point x="899" y="688"/>
      <point x="922" y="705"/>
      <point x="922" y="741" type="curve" smooth="yes"/>
      <point x="922" y="795"/>
      <point x="847" y="830"/>
      <point x="732" y="830" type="curve" smooth="yes"/>
      <point x="641" y="830"/>
      <point x="547" y="801"/>
      <point x="498" y="757" type="curve"/>
      <point x="463" y="781"/>
      <point x="431" y="790"/>
      <point x="381" y="790" type="curve" smooth="yes"/>
      <point x="225" y="790"/>
      <point x="126" y="696"/>
      <point x="126" y="546" type="curve" smooth="yes"/>
      <point x="126" y="514" type="line"/>
      <point x="19" y="514" type="line"/>
      <point x="19" y="457" type="line"/>
      <point x="126" y="457" type="line"/>
      <point x="126" y="158" type="line" smooth="yes"/>
      <point x="126" y="57"/>
      <point x="116" y="44"/>
      <point x="37" y="40" type="curve"/>
      <point x="37" y="0" type="line"/>
      <point x="340" y="0" type="line"/>
      <point x="340" y="40" type="line"/>
      <point x="280" y="42"/>
      <point x="265" y="67"/>
      <point x="265" y="166" type="curve" smooth="yes"/>
      <point x="265" y="457" type="line"/>
      <point x="462" y="457" type="line"/>
      <point x="462" y="158" type="line" smooth="yes"/>
      <point x="462" y="59"/>
      <point x="453" y="43"/>
      <point x="391" y="40" type="curve"/>
      <point x="391" y="0" type="line"/>
      <point x="685" y="0" type="line"/>
      <point x="685" y="40" type="line"/>
      <point x="617" y="42"/>
      <point x="601" y="66"/>
      <point x="601" y="166" type="curve" smooth="yes"/>
      <point x="601" y="457" type="line"/>
      <point x="708" y="457" type="line" smooth="yes"/>
      <point x="769" y="457"/>
      <point x="787" y="449"/>
      <point x="794" y="416" type="curve" smooth="yes"/>
      <point x="798" y="398"/>
      <point x="801" y="346"/>
      <point x="801" y="269" type="curve" smooth="yes"/>
      <point x="801" y="157" type="line" smooth="yes"/>
      <point x="801" y="64"/>
      <point x="791" y="44"/>
      <point x="732" y="40" type="curve"/>
      <point x="732" y="0" type="line"/>
      <point x="1027" y="0" type="line"/>
      <point x="1027" y="40" type="line"/>
      <point x="950" y="43"/>
      <point x="940" y="59"/>
      <point x="940" y="164" type="curve" smooth="yes"/>
    </contour>
    <contour>
      <point x="265" y="514" type="line"/>
      <point x="265" y="552" type="line" smooth="yes"/>
      <point x="265" y="666"/>
      <point x="286" y="732"/>
      <point x="349" y="732" type="curve" smooth="yes"/>
      <point x="387" y="732"/>
      <point x="418" y="718"/>
      <point x="462" y="660" type="curve"/>
      <point x="462" y="514" type="line"/>
    </contour>
  </outline>
</glyph>
<glyph name="f_f_l" format="1">
  <advance width="1048"/>
  <unicode hex="FB04"/>
  <outline>
    <contour>
      <point x="265" y="457" type="line"/>
      <point x="462" y="457" type="line"/>
      <point x="462" y="158" type="line" smooth="yes"/>
      <point x="462" y="59"/>
      <point x="453" y="43"/>
      <point x="391" y="40" type="curve"/>
      <point x="391" y="0" type="line"/>
      <point x="685" y="0" type="line"/>
      <point x="685" y="40" type="line"/>
      <point x="617" y="42"/>
      <point x="601" y="66"/>
      <point x="601" y="166" type="curve" smooth="yes"/>
      <point x="601" y="457" type="line"/>
      <point x="733" y="457" type="line"/>
      <point x="733" y="514" type="line"/>
      <point x="601" y="514" type="line"/>
      <point x="601" y="592" type="line" smooth="yes"/>
      <point x="601" y="730"/>
      <point x="641" y="772"/>
      <point x="698" y="772" type="curve" smooth="yes"/>
      <point x="730" y="772"/>
      <point x="768" y="758"/>
      <point x="801" y="725" type="curve"/>
      <point x="801" y="157" type="line" smooth="yes"/>
      <point x="801" y="64"/>
      <point x="791" y="44"/>
      <point x="732" y="40" type="curve"/>
      <point x="732" y="0" type="line"/>
      <point x="1027" y="0" type="line"/>
      <point x="1027" y="40" type="line"/>
      <point x="950" y="43"/>
      <point x="940" y="59"/>
      <point x="940" y="164" type="curve" smooth="yes"/>
      <point x="940" y="830" type="line"/>
      <point x="867" y="807" type="line"/>
      <point x="834" y="822"/>
      <point x="788" y="830"/>
      <point x="732" y="830" type="curve" smooth="yes"/>
      <point x="641" y="830"/>
      <point x="547" y="801"/>
      <point x="498" y="757" type="curve"/>
      <point x="463" y="781"/>
      <point x="431" y="790"/>
      <point x="381" y="790" type="curve" smooth="yes"/>
      <point x="225" y="790"/>
      <point x="126" y="696"/>
      <point x="126" y="546" type="curve" smooth="yes"/>
      <point x="126" y="514" type="line"/>
      <point x="19" y="514" type="line"/>
      <point x="19" y="457" type="line"/>
      <point x="126" y="457" type="line"/>
      <point x="126" y="158" type="line" smooth="yes"/>
      <point x="126" y="57"/>
      <point x="116" y="44"/>
      <point x="37" y="40" type="curve"/>
      <point x="37" y="0" type="line"/>
      <point x="340" y="0" type="line"/>
      <point x="340" y="40" type="line"/>
      <point x="280" y="42"/>
      <point x="265" y="67"/>
      <point x="265" y="166" type="curve" smooth="yes"/>
    </contour>
    <contour>
      <point x="265" y="514" type="line"/>
      <point x="265" y="552" type="line" smooth="yes"/>
      <point x="265" y="666"/>
      <point x="286" y="732"/>
      <point x="349" y="732" type="curve" smooth="yes"/>
      <point x="387" y="732"/>
      <point x="418" y="718"/>
      <point x="462" y="660" type="curve"/>
      <point x="462" y="514" type="line"/>
    </contour>
  </outline>
</glyph>
<glyph name="s_t" format="1">
  <advance width="867"/>
  <unicode hex="FB06"/>
  <outline>
    <contour>
      <point x="107" y="35" type="line"/>
      <point x="138" y="6"/>
      <point x="190" y="-10"/>
      <point x="248" y="-10" type="curve" smooth="yes"/>
      <point x="358" y="-10"/>
      <point x="430" y="51"/>
      <point x="430" y="143" type="curve" smooth="yes"/>
      <point x="430" y="214"/>
      <point x="393" y="258"/>
      <point x="279" y="324" type="curve" smooth="yes"/>
      <point x="198" y="370"/>
      <point x="173" y="395"/>
      <point x="173" y="432" type="curve" smooth="yes"/>
      <point x="173" y="464"/>
      <point x="197" y="487"/>
      <point x="232" y="487" type="curve" smooth="yes"/>
      <point x="302" y="487"/>
      <point x="305" y="394"/>
      <point x="373" y="394" type="curve" smooth="yes"/>
      <point x="408" y="394"/>
      <point x="434" y="419"/>
      <point x="434" y="452" type="curve" smooth="yes"/>
      <point x="434" y="467"/>
      <point x="427" y="482"/>
      <point x="415" y="495" type="curve" smooth="yes"/>
      <point x="387" y="527"/>
      <point x="375" y="559"/>
      <point x="375" y="602" type="curve" smooth="yes"/>
      <point x="375" y="694"/>
      <point x="429" y="749"/>
      <point x="518" y="749" type="curve" smooth="yes"/>
      <point x="599" y="749"/>
      <point x="653" y="703"/>
      <point x="653" y="636" type="curve" smooth="yes"/>
      <point x="653" y="570"/>
      <point x="601" y="520"/>
      <point x="510" y="520" type="curve"/>
      <point x="510" y="475" type="line"/>
      <point x="583" y="475" type="line"/>
      <point x="583" y="112" type="line" smooth="yes"/>
      <point x="583" y="35"/>
      <point x="637" y="-10"/>
      <point x="729" y="-10" type="curve" smooth="yes"/>
      <point x="797" y="-10"/>
      <point x="843" y="15"/>
      <point x="861" y="61" type="curve"/>
      <point x="840" y="90" type="line"/>
      <point x="824" y="65"/>
      <point x="807" y="54"/>
      <point x="782" y="54" type="curve" smooth="yes"/>
      <point x="739" y="54"/>
      <point x="722" y="86"/>
      <point x="722" y="168" type="curve" smooth="yes"/>
      <point x="722" y="475" type="line"/>
      <point x="837" y="475" type="line"/>
      <point x="837" y="530" type="line"/>
      <point x="722" y="530" type="line"/>
      <point x="722" y="609" type="line" smooth="yes"/>
      <point x="722" y="737"/>
      <point x="654" y="804"/>
      <point x="523" y="804" type="curve" smooth="yes"/>
      <point x="389" y="804"/>
      <point x="315" y="734"/>
      <point x="315" y="609" type="curve" smooth="yes"/>
      <point x="315" y="585"/>
      <point x="318" y="561"/>
      <point x="323" y="538" type="curve"/>
      <point x="302" y="543"/>
      <point x="279" y="545"/>
      <point x="254" y="545" type="curve" smooth="yes"/>
      <point x="135" y="545"/>
      <point x="58" y="483"/>
      <point x="58" y="386" type="curve" smooth="yes"/>
      <point x="58" y="318"/>
      <point x="94" y="274"/>
      <point x="200" y="213" type="curve" smooth="yes"/>
      <point x="277" y="168"/>
      <point x="306" y="138"/>
      <point x="306" y="102" type="curve" smooth="yes"/>
      <point x="306" y="66"/>
      <point x="277" y="44"/>
      <point x="228" y="44" type="curve" smooth="yes"/>
      <point x="160" y="44"/>
      <point x="119" y="87"/>
      <point x="96" y="182" type="curve"/>
      <point x="54" y="182" type="line"/>
      <point x="54" y="0" type="line"/>
      <point x="85" y="0" type="line"/>
    </contour>
  </outline>
</glyph>
<glyph name="c_t" format="1">
  <advance width="947"/>
  <outline>
    <contour>
      <point x="502" y="121" type="line"/>
      <point x="452" y="83"/>
      <point x="395" y="61"/>
      <point x="343" y="61" type="curve" smooth="yes"/>
      <point x="246" y="61"/>
      <point x="193" y="138"/>
      <point x="193" y="278" type="curve" smooth="yes"/>
      <point x="193" y="407"/>
      <point x="238" y="482"/>
      <point x="316" y="482" type="curve" smooth="yes"/>
      <point x="349" y="482"/>
      <point x="354" y="478"/>
      <point x="400" y="410" type="curve" smooth="yes"/>
      <point x="425" y="373"/>
      <point x="445" y="359"/>
      <point x="474" y="359" type="curve" smooth="yes"/>
      <point x="511" y="359"/>
      <point x="536" y="383"/>
      <point x="536" y="420" type="curve" smooth="yes"/>
      <point x="536" y="446"/>
      <point x="523" y="470"/>
      <point x="500" y="489" type="curve"/>
      <point x="469" y="523"/>
      <point x="455" y="560"/>
      <point x="455" y="606" type="curve" smooth="yes"/>
      <point x="455" y="694"/>
      <point x="510" y="749"/>
      <point x="599" y="749" type="curve" smooth="yes"/>
      <point x="679" y="749"/>
      <point x="733" y="703"/>
      <point x="733" y="635" type="curve" smooth="yes"/>
      <point x="733" y="570"/>
      <point x="678" y="526"/>
      <point x="590" y="520" type="curve"/>
      <point x="590" y="475" type="line"/>
      <point x="663" y="475" type="line"/>
      <point x="663" y="112" type="line" smooth="yes"/>
      <point x="663" y="35"/>
      <point x="717" y="-10"/>
      <point x="809" y="-10" type="curve" smooth="yes"/>
      <point x="877" y="-10"/>
      <point x="923" y="15"/>
      <point x="941" y="61" type="curve"/>
      <point x="920" y="90" type="line"/>
      <point x="905" y="65"/>
      <point x="888" y="54"/>
      <point x="862" y="54" type="curve" smooth="yes"/>
      <point x="819" y="54"/>
      <point x="802" y="86"/>
      <point x="802" y="168" type="curve" smooth="yes"/>
      <point x="802" y="475" type="line"/>
      <point x="917" y="475" type="line"/>
      <point x="917" y="530" type="line"/>
      <point x="802" y="530" type="line"/>
      <point x="802" y="609" type="line" smooth="yes"/>
      <point x="802" y="737"/>
      <point x="734" y="804"/>
      <point x="604" y="804" type="curve" smooth="yes"/>
      <point x="469" y="804"/>
      <point x="395" y="734"/>
      <point x="395" y="611" type="curve" smooth="yes"/>
      <point x="395" y="580"/>
      <point x="399" y="555"/>
      <point x="409" y="531" type="curve"/>
      <point x="385" y="537"/>
      <point x="358" y="540"/>
      <point x="330" y="540" type="curve" smooth="yes"/>
      <point x="156" y="540"/>
      <point x="39" y="429"/>
      <point x="39" y="263" type="curve" smooth="yes"/>
      <point x="39" y="103"/>
      <point x="149" y="-5"/>
      <point x="311" y="-5" type="curve" smooth="yes"/>
      <point x="398" y="-5"/>
      <point x="478" y="27"/>
      <point x="528" y="83" type="curve"/>
    </contour>
  </outline>
</glyph>
<glyph name="dieresis.cap" format="1">
  <advance width="339"/>
  <outline>
    <contour>
      <point x="169" y="830" type="move" name="_topcap"/>
    </contour>
    <contour>
      <point x="0" y="903" type="curve" smooth="yes"/>
      <point x="0" y="868"/>
      <point x="26" y="844"/>
      <point x="60" y="844" type="curve" smooth="yes"/>
      <point x="96" y="844"/>
      <point x="122" y="868"/>
      <point x="122" y="903" type="curve" smooth="yes"/>
      <point x="122" y="936"/>
      <point x="96" y="960"/>
      <point x="60" y="960" type="curve" smooth="yes"/>
      <point x="26" y="960"/>
      <point x="0" y="936"/>
    </contour>
    <contour>
      <point x="217" y="903" type="curve" smooth="yes"/>
      <point x="217" y="868"/>
      <point x="243" y="844"/>
      <point x="279" y="844" type="curve" smooth="yes"/>
      <point x="312" y="844"/>
      <point x="339" y="868"/>
      <point x="339" y="903" type="curve" smooth="yes"/>
      <point x="339" y="936"/>
      <point x="312" y="960"/>
      <point x="279" y="960" type="curve" smooth="yes"/>
      <point x="243" y="960"/>
      <point x="217" y="936"/>
    </contour>
  </outline>
</glyph>
<glyph name="dotbelow" format="1">
  <advance width="172"/>
  <outline>
    <contour>
      <point x="86" y="0" type="move" name="_bottom"/>
    </contour>
    <contour>
      <point x="9" y="-165" type="curve" smooth="yes"/>
      <point x="9" y="-208"/>
      <point x="43" y="-242"/>
      <point x="86" y="-242" type="curve" smooth="yes"/>
      <point x="130" y="-242"/>
      <point x="164" y="-208"/>
      <point x="164" y="-165" type="curve" smooth="yes"/>
      <point x="164" y="-121"/>
      <point x="130" y="-87"/>
      <point x="86" y="-87" type="curve" smooth="yes"/>
      <point x="43" y="-87"/>
      <point x="9" y="-121"/>
    </contour>
  </outline>
</glyph>
<glyph name="f_t" format="1">
  <advance width="774"/>
  <outline>
    <contour>
      <point x="490" y="475" type="line"/>
      <point x="490" y="112" type="line" smooth="yes"/>
      <point x="490" y="35"/>
      <point x="544" y="-10"/>
      <point x="636" y="-10" type="curve" smooth="yes"/>
      <point x="704" y="-10"/>
      <point x="750" y="15"/>
      <point x="768" y="61" type="curve"/>
      <point x="747" y="90" type="line"/>
      <point x="733" y="65"/>
      <point x="715" y="54"/>
      <point x="688" y="54" type="curve" smooth="yes"/>
      <point x="646" y="54"/>
      <point x="629" y="86"/>
      <point x="629" y="168" type="curve" smooth="yes"/>
      <point x="629" y="475" type="line"/>
      <point x="744" y="475" type="line"/>
      <point x="744" y="530" type="line"/>
      <point x="629" y="530" type="line"/>
      <point x="629" y="651" type="line"/>
      <point x="578" y="651" type="line"/>
      <point x="556" y="590"/>
      <point x="484" y="530"/>
      <point x="417" y="530" type="curve"/>
      <point x="417" y="475" type="line"/>
    </contour>
    <component base="f"/>
  </outline>
</glyph>
<glyph name="hungarumlaut.cap" format="1">
  <advance width="521"/>
  <outline>
    <contour>
      <point x="216" y="830" type="move" name="_topcap"/>
    </contour>
    <contour>
      <point x="93" y="830" type="line"/>
      <point x="189" y="858" type="line" smooth="yes"/>
      <point x="257" y="878"/>
      <point x="277" y="893"/>
      <point x="277" y="923" type="curve" smooth="yes"/>
      <point x="277" y="945"/>
      <point x="257" y="960"/>
      <point x="220" y="960" type="curve" smooth="yes"/>
      <point x="186" y="960"/>
      <point x="150" y="949"/>
      <point x="126" y="927" type="curve" smooth="yes"/>
      <point x="20" y="830" type="line"/>
    </contour>
    <contour>
      <point x="317" y="830" type="line"/>
      <point x="413" y="858" type="line" smooth="yes"/>
      <point x="481" y="878"/>
      <point x="501" y="893"/>
      <point x="501" y="923" type="curve" smooth="yes"/>
      <point x="501" y="945"/>
      <point x="481" y="960"/>
      <point x="444" y="960" type="curve" smooth="yes"/>
      <point x="410" y="960"/>
      <point x="374" y="949"/>
      <point x="350" y="927" type="curve" smooth="yes"/>
      <point x="244" y="830" type="line"/>
    </contour>
  </outline>
</glyph>
<glyph name="ring.cap" format="1">
  <advance width="178"/>
  <outline>
    <contour>
      <point x="89" y="830" type="move" name="_topcap"/>
    </contour>
    <contour>
      <point x="21" y="895" type="curve" smooth="yes"/>
      <point x="21" y="858"/>
      <point x="50" y="830"/>
      <point x="89" y="830" type="curve" smooth="yes"/>
      <point x="128" y="830"/>
      <point x="157" y="858"/>
      <point x="157" y="895" type="curve" smooth="yes"/>
      <point x="157" y="932"/>
      <point x="128" y="960"/>
      <point x="89" y="960" type="curve" smooth="yes"/>
      <point x="50" y="960"/>
      <point x="21" y="932"/>
    </contour>
    <contour>
      <point x="63" y="895" type="curve" smooth="yes"/>
      <point x="63" y="908"/>
      <point x="74" y="918"/>
      <point x="89" y="918" type="curve" smooth="yes"/>
      <point x="103" y="918"/>
      <point x="114" y="908"/>
      <point x="114" y="895" type="curve" smooth="yes"/>
      <point x="114" y="881"/>
      <point x="103" y="871"/>
      <point x="89" y="871" type="curve" smooth="yes"/>
      <point x="74" y="871"/>
      <point x="63" y="881"/>
    </contour>
  </outline>
</glyph>
<glyph name="tilde.cap" format="1">
  <advance width="401"/>
  <outline>
    <contour>
      <point x="202" y="830" type="move" name="_topcap"/>
    </contour>
    <contour>
      <point x="57" y="828" type="line"/>
      <point x="67" y="858"/>
      <point x="78" y="868"/>
      <point x="101" y="868" type="curve" smooth="yes"/>
      <point x="123" y="868"/>
      <point x="158" y="859"/>
      <point x="188" y="845" type="curve" smooth="yes"/>
      <point x="226" y="827"/>
      <point x="249" y="820"/>
      <point x="273" y="820" type="curve" smooth="yes"/>
      <point x="303" y="820"/>
      <point x="325" y="831"/>
      <point x="346" y="856" type="curve" smooth="yes"/>
      <point x="367" y="882"/>
      <point x="385" y="923"/>
      <point x="390" y="958" type="curve"/>
      <point x="345" y="958" type="line"/>
      <point x="335" y="927"/>
      <point x="321" y="916"/>
      <point x="296" y="916" type="curve" smooth="yes"/>
      <point x="278" y="916"/>
      <point x="258" y="922"/>
      <point x="217" y="938" type="curve" smooth="yes"/>
      <point x="167" y="957"/>
      <point x="149" y="962"/>
      <point x="130" y="962" type="curve" smooth="yes"/>
      <point x="73" y="962"/>
      <point x="24" y="906"/>
      <point x="11" y="828" type="curve"/>
    </contour>
  </outline>
</glyph>
